<svg xmlns="http://www.w3.org/2000/svg" xmlns:xlink="http://www.w3.org/1999/xlink" width="512" zoomAndPan="magnify" viewBox="0 0 384 383.999986" height="512" preserveAspectRatio="xMidYMid meet" version="1.0"><defs><clipPath id="0634a2d2a4"><path d="M 62 253 L 341.996094 253 L 341.996094 334 L 62 334 Z M 62 253 " clip-rule="nonzero"/></clipPath><clipPath id="d5ae8a27f5"><path d="M 41.996094 50 L 281 50 L 281 258 L 41.996094 258 Z M 41.996094 50 " clip-rule="nonzero"/></clipPath></defs><rect x="-38.4" width="460.8" fill="#ffffff" y="-38.399999" height="460.799983" fill-opacity="1"/><rect x="-38.4" width="460.8" fill="#FF8000" y="-38.399999" height="460.799983" fill-opacity="1"/><g clip-path="url(#0634a2d2a4)"><path fill="#000000" d="M 341.972656 293.351562 C 341.554688 267.824219 317.109375 253.449219 290.550781 253.449219 C 263.765625 253.457031 244.652344 269.570312 240.414062 283.59375 C 229.632812 291.292969 204.152344 286.234375 189.46875 280.804688 C 182.441406 280.816406 74.785156 280.816406 74.785156 280.816406 L 74.773438 280.84375 C 74.703125 280.835938 74.613281 280.828125 74.53125 280.828125 C 67.949219 280.828125 62.605469 286.167969 62.597656 292.746094 C 62.597656 293.089844 62.605469 294.363281 62.597656 294.695312 C 62.605469 301.292969 67.945312 306.625 74.53125 306.625 C 74.613281 306.625 74.691406 306.609375 74.773438 306.609375 L 74.765625 306.625 C 74.765625 306.625 182.457031 306.625 189.46875 306.617188 C 204.167969 301.175781 229.632812 296.089844 240.410156 303.789062 C 244.660156 317.835938 263.777344 333.9375 290.558594 333.925781 C 317.109375 333.925781 341.550781 319.53125 341.960938 294.015625 L 341.972656 294.015625 C 341.980469 293.898438 341.972656 293.460938 341.992188 293.359375 C 342.003906 293.351562 341.980469 293.351562 341.972656 293.351562 Z M 310.648438 270.035156 C 308.765625 269.957031 306.046875 269.859375 302.792969 269.761719 C 296.398438 269.683594 287.703125 269.179688 279.984375 270.375 C 278.171875 270.589844 276.125 271.226562 274.273438 271.847656 C 272.363281 272.441406 270.460938 273.144531 268.640625 273.894531 C 264.972656 275.316406 261.582031 276.867188 258.640625 278.203125 C 255.734375 279.566406 253.296875 280.765625 251.660156 281.710938 C 249.984375 282.589844 249.261719 283.417969 249.339844 283.476562 C 249.253906 283.496094 249.515625 282.277344 250.78125 280.71875 C 252.03125 279.140625 253.980469 277.113281 256.570312 274.96875 C 259.144531 272.796875 262.34375 270.5625 266.046875 268.457031 C 267.898438 267.433594 269.847656 266.46875 271.953125 265.5625 C 274.117188 264.695312 276.230469 263.996094 278.714844 263.527344 C 283.484375 262.628906 288.0625 262.773438 292.261719 263.28125 C 296.476562 263.75 300.296875 264.644531 303.472656 265.632812 C 306.699219 266.585938 309.28125 267.707031 311.035156 268.632812 C 312.839844 269.539062 313.695312 270.269531 313.695312 270.269531 C 313.695312 270.269531 312.539062 270.105469 310.648438 270.035156 Z M 310.648438 270.035156 " fill-opacity="1" fill-rule="nonzero"/></g><g clip-path="url(#d5ae8a27f5)"><path fill="#000000" d="M 89.804688 179.808594 L 89.804688 247.714844 C 89.804688 253.253906 94.296875 257.734375 99.832031 257.734375 L 232.441406 257.734375 C 237.984375 257.734375 242.460938 253.25 242.460938 247.714844 L 242.460938 174.648438 C 254.566406 168.578125 264.738281 160.214844 270.820312 148.789062 C 283.328125 125.265625 284.300781 102.476562 273.589844 84.632812 C 262.890625 66.847656 242.011719 56.648438 216.28125 56.648438 C 197.875 56.648438 181.394531 64.71875 167.902344 74.945312 C 155.855469 61.609375 132.601562 49.441406 107.746094 50.089844 C 91.699219 50.511719 68.945312 56.449219 51.617188 82.429688 C 42.695312 95.8125 39.960938 109.941406 43.484375 124.457031 C 50.152344 151.882812 78.0625 172.28125 89.804688 179.808594 Z M 68.308594 93.554688 C 78.386719 78.433594 91.832031 70.558594 108.257812 70.136719 C 126.15625 69.71875 144.21875 78.632812 152.878906 88.203125 C 139.210938 102.039062 130.953125 115.421875 130.253906 116.589844 C 127.382812 121.3125 128.886719 127.46875 133.621094 130.351562 C 138.347656 133.226562 144.507812 131.730469 147.390625 126.988281 C 147.6875 126.492188 178.488281 76.71875 216.261719 76.71875 C 234.78125 76.71875 249.398438 83.375 256.378906 94.960938 C 263.335938 106.53125 262.167969 122.296875 253.09375 139.351562 C 236.476562 170.617188 165.574219 171.871094 139.648438 169.726562 C 134.144531 169.234375 129.277344 173.378906 128.828125 178.890625 C 128.367188 184.414062 132.460938 189.269531 137.980469 189.726562 C 139.097656 189.816406 146.660156 190.40625 157.734375 190.40625 C 174.609375 190.40625 199.640625 189.007812 222.402344 182.359375 L 222.402344 237.664062 L 109.851562 237.664062 L 109.851562 174.160156 C 109.851562 170.515625 107.878906 167.160156 104.699219 165.386719 C 104.347656 165.1875 69.175781 145.332031 62.96875 119.664062 C 60.808594 110.742188 62.558594 102.199219 68.308594 93.554688 Z M 68.308594 93.554688 " fill-opacity="1" fill-rule="nonzero"/></g></svg>